<mxfile host="app.diagrams.net" modified="2022-02-27T17:34:33.588Z" agent="5.0 (Windows NT 10.0; Win64; x64) AppleWebKit/537.36 (KHTML, like Gecko) Chrome/98.0.4758.102 Safari/537.36" etag="4JT_EQe3iOIVWAdH0svW" version="16.6.4" type="github">
  <diagram id="R2lEEEUBdFMjLlhIrx00" name="Page-1">
    <mxGraphModel dx="2272" dy="1886" grid="1" gridSize="10" guides="1" tooltips="1" connect="1" arrows="1" fold="1" page="1" pageScale="1" pageWidth="850" pageHeight="1100" math="0" shadow="0" extFonts="Permanent Marker^https://fonts.googleapis.com/css?family=Permanent+Marker">
      <root>
        <mxCell id="0" />
        <mxCell id="1" parent="0" />
        <mxCell id="M6kmKgqwMufsq780r6Ww-16" value="" style="rounded=0;orthogonalLoop=1;jettySize=auto;html=1;" edge="1" parent="1" source="M6kmKgqwMufsq780r6Ww-1" target="M6kmKgqwMufsq780r6Ww-12">
          <mxGeometry relative="1" as="geometry" />
        </mxCell>
        <mxCell id="M6kmKgqwMufsq780r6Ww-18" value="" style="rounded=0;orthogonalLoop=1;jettySize=auto;html=1;" edge="1" parent="1" source="M6kmKgqwMufsq780r6Ww-1" target="M6kmKgqwMufsq780r6Ww-17">
          <mxGeometry relative="1" as="geometry" />
        </mxCell>
        <mxCell id="M6kmKgqwMufsq780r6Ww-74" value="" style="edgeStyle=none;rounded=0;orthogonalLoop=1;jettySize=auto;html=1;" edge="1" parent="1" source="M6kmKgqwMufsq780r6Ww-1" target="M6kmKgqwMufsq780r6Ww-73">
          <mxGeometry relative="1" as="geometry" />
        </mxCell>
        <mxCell id="M6kmKgqwMufsq780r6Ww-76" value="" style="edgeStyle=none;rounded=0;orthogonalLoop=1;jettySize=auto;html=1;" edge="1" parent="1" source="M6kmKgqwMufsq780r6Ww-1" target="M6kmKgqwMufsq780r6Ww-75">
          <mxGeometry relative="1" as="geometry" />
        </mxCell>
        <mxCell id="M6kmKgqwMufsq780r6Ww-81" value="" style="edgeStyle=none;rounded=0;orthogonalLoop=1;jettySize=auto;html=1;" edge="1" parent="1" source="M6kmKgqwMufsq780r6Ww-1" target="M6kmKgqwMufsq780r6Ww-80">
          <mxGeometry relative="1" as="geometry" />
        </mxCell>
        <mxCell id="M6kmKgqwMufsq780r6Ww-1" value="Nonprofits" style="rounded=0;whiteSpace=wrap;html=1;" vertex="1" parent="1">
          <mxGeometry x="-120" y="-180" width="120" height="60" as="geometry" />
        </mxCell>
        <mxCell id="M6kmKgqwMufsq780r6Ww-49" value="" style="edgeStyle=none;rounded=0;orthogonalLoop=1;jettySize=auto;html=1;" edge="1" parent="1" source="M6kmKgqwMufsq780r6Ww-2" target="M6kmKgqwMufsq780r6Ww-48">
          <mxGeometry relative="1" as="geometry" />
        </mxCell>
        <mxCell id="M6kmKgqwMufsq780r6Ww-51" value="" style="edgeStyle=none;rounded=0;orthogonalLoop=1;jettySize=auto;html=1;" edge="1" parent="1" source="M6kmKgqwMufsq780r6Ww-2" target="M6kmKgqwMufsq780r6Ww-50">
          <mxGeometry relative="1" as="geometry" />
        </mxCell>
        <mxCell id="M6kmKgqwMufsq780r6Ww-53" value="" style="edgeStyle=none;rounded=0;orthogonalLoop=1;jettySize=auto;html=1;" edge="1" parent="1" source="M6kmKgqwMufsq780r6Ww-2" target="M6kmKgqwMufsq780r6Ww-52">
          <mxGeometry relative="1" as="geometry" />
        </mxCell>
        <mxCell id="M6kmKgqwMufsq780r6Ww-2" value="Purpose" style="rounded=0;whiteSpace=wrap;html=1;" vertex="1" parent="1">
          <mxGeometry x="550" y="-90" width="120" height="60" as="geometry" />
        </mxCell>
        <mxCell id="M6kmKgqwMufsq780r6Ww-32" value="" style="edgeStyle=none;rounded=0;orthogonalLoop=1;jettySize=auto;html=1;" edge="1" parent="1" source="M6kmKgqwMufsq780r6Ww-3" target="M6kmKgqwMufsq780r6Ww-31">
          <mxGeometry relative="1" as="geometry" />
        </mxCell>
        <mxCell id="M6kmKgqwMufsq780r6Ww-34" value="" style="edgeStyle=none;rounded=0;orthogonalLoop=1;jettySize=auto;html=1;" edge="1" parent="1" source="M6kmKgqwMufsq780r6Ww-3" target="M6kmKgqwMufsq780r6Ww-33">
          <mxGeometry relative="1" as="geometry" />
        </mxCell>
        <mxCell id="M6kmKgqwMufsq780r6Ww-36" value="" style="edgeStyle=none;rounded=0;orthogonalLoop=1;jettySize=auto;html=1;" edge="1" parent="1" source="M6kmKgqwMufsq780r6Ww-3" target="M6kmKgqwMufsq780r6Ww-35">
          <mxGeometry relative="1" as="geometry" />
        </mxCell>
        <mxCell id="M6kmKgqwMufsq780r6Ww-38" value="" style="edgeStyle=none;rounded=0;orthogonalLoop=1;jettySize=auto;html=1;" edge="1" parent="1" source="M6kmKgqwMufsq780r6Ww-3" target="M6kmKgqwMufsq780r6Ww-37">
          <mxGeometry relative="1" as="geometry" />
        </mxCell>
        <mxCell id="M6kmKgqwMufsq780r6Ww-39" value="" style="edgeStyle=none;rounded=0;orthogonalLoop=1;jettySize=auto;html=1;" edge="1" parent="1" source="M6kmKgqwMufsq780r6Ww-3" target="M6kmKgqwMufsq780r6Ww-33">
          <mxGeometry relative="1" as="geometry" />
        </mxCell>
        <mxCell id="M6kmKgqwMufsq780r6Ww-41" value="" style="edgeStyle=none;rounded=0;orthogonalLoop=1;jettySize=auto;html=1;" edge="1" parent="1" source="M6kmKgqwMufsq780r6Ww-3" target="M6kmKgqwMufsq780r6Ww-40">
          <mxGeometry relative="1" as="geometry" />
        </mxCell>
        <mxCell id="M6kmKgqwMufsq780r6Ww-84" value="" style="edgeStyle=none;rounded=0;orthogonalLoop=1;jettySize=auto;html=1;" edge="1" parent="1" source="M6kmKgqwMufsq780r6Ww-3" target="M6kmKgqwMufsq780r6Ww-83">
          <mxGeometry relative="1" as="geometry" />
        </mxCell>
        <mxCell id="M6kmKgqwMufsq780r6Ww-89" value="" style="edgeStyle=none;rounded=0;orthogonalLoop=1;jettySize=auto;html=1;fontSize=11;" edge="1" parent="1" source="M6kmKgqwMufsq780r6Ww-3" target="M6kmKgqwMufsq780r6Ww-88">
          <mxGeometry relative="1" as="geometry" />
        </mxCell>
        <mxCell id="M6kmKgqwMufsq780r6Ww-92" value="" style="edgeStyle=none;rounded=0;orthogonalLoop=1;jettySize=auto;html=1;fontSize=11;entryX=0.5;entryY=0;entryDx=0;entryDy=0;" edge="1" parent="1" source="M6kmKgqwMufsq780r6Ww-3" target="M6kmKgqwMufsq780r6Ww-91">
          <mxGeometry relative="1" as="geometry" />
        </mxCell>
        <mxCell id="M6kmKgqwMufsq780r6Ww-95" value="" style="edgeStyle=none;rounded=0;orthogonalLoop=1;jettySize=auto;html=1;fontSize=11;" edge="1" parent="1" source="M6kmKgqwMufsq780r6Ww-3" target="M6kmKgqwMufsq780r6Ww-94">
          <mxGeometry relative="1" as="geometry" />
        </mxCell>
        <mxCell id="M6kmKgqwMufsq780r6Ww-3" value="Volunteers" style="rounded=0;whiteSpace=wrap;html=1;" vertex="1" parent="1">
          <mxGeometry x="120" width="120" height="60" as="geometry" />
        </mxCell>
        <mxCell id="M6kmKgqwMufsq780r6Ww-56" value="" style="edgeStyle=none;rounded=0;orthogonalLoop=1;jettySize=auto;html=1;" edge="1" parent="1" source="M6kmKgqwMufsq780r6Ww-4" target="M6kmKgqwMufsq780r6Ww-55">
          <mxGeometry relative="1" as="geometry" />
        </mxCell>
        <mxCell id="M6kmKgqwMufsq780r6Ww-58" value="" style="edgeStyle=none;rounded=0;orthogonalLoop=1;jettySize=auto;html=1;" edge="1" parent="1" source="M6kmKgqwMufsq780r6Ww-4" target="M6kmKgqwMufsq780r6Ww-57">
          <mxGeometry relative="1" as="geometry" />
        </mxCell>
        <mxCell id="M6kmKgqwMufsq780r6Ww-60" value="" style="edgeStyle=none;rounded=0;orthogonalLoop=1;jettySize=auto;html=1;" edge="1" parent="1" source="M6kmKgqwMufsq780r6Ww-4" target="M6kmKgqwMufsq780r6Ww-59">
          <mxGeometry relative="1" as="geometry" />
        </mxCell>
        <mxCell id="M6kmKgqwMufsq780r6Ww-4" value="Reminders" style="rounded=0;whiteSpace=wrap;html=1;" vertex="1" parent="1">
          <mxGeometry x="570" y="500" width="120" height="60" as="geometry" />
        </mxCell>
        <mxCell id="M6kmKgqwMufsq780r6Ww-43" value="" style="edgeStyle=none;rounded=0;orthogonalLoop=1;jettySize=auto;html=1;" edge="1" parent="1" source="M6kmKgqwMufsq780r6Ww-5" target="M6kmKgqwMufsq780r6Ww-42">
          <mxGeometry relative="1" as="geometry" />
        </mxCell>
        <mxCell id="M6kmKgqwMufsq780r6Ww-45" value="" style="edgeStyle=none;rounded=0;orthogonalLoop=1;jettySize=auto;html=1;" edge="1" parent="1" source="M6kmKgqwMufsq780r6Ww-5" target="M6kmKgqwMufsq780r6Ww-44">
          <mxGeometry relative="1" as="geometry" />
        </mxCell>
        <mxCell id="M6kmKgqwMufsq780r6Ww-47" value="" style="edgeStyle=none;rounded=0;orthogonalLoop=1;jettySize=auto;html=1;" edge="1" parent="1" source="M6kmKgqwMufsq780r6Ww-5" target="M6kmKgqwMufsq780r6Ww-46">
          <mxGeometry relative="1" as="geometry" />
        </mxCell>
        <mxCell id="M6kmKgqwMufsq780r6Ww-5" value="Community" style="rounded=0;whiteSpace=wrap;html=1;" vertex="1" parent="1">
          <mxGeometry x="290" y="600" width="120" height="60" as="geometry" />
        </mxCell>
        <mxCell id="M6kmKgqwMufsq780r6Ww-24" value="" style="rounded=0;orthogonalLoop=1;jettySize=auto;html=1;" edge="1" parent="1" source="M6kmKgqwMufsq780r6Ww-6" target="M6kmKgqwMufsq780r6Ww-23">
          <mxGeometry relative="1" as="geometry" />
        </mxCell>
        <mxCell id="M6kmKgqwMufsq780r6Ww-25" value="" style="rounded=0;orthogonalLoop=1;jettySize=auto;html=1;" edge="1" parent="1" source="M6kmKgqwMufsq780r6Ww-6" target="M6kmKgqwMufsq780r6Ww-19">
          <mxGeometry relative="1" as="geometry" />
        </mxCell>
        <mxCell id="M6kmKgqwMufsq780r6Ww-27" value="" style="rounded=0;orthogonalLoop=1;jettySize=auto;html=1;" edge="1" parent="1" source="M6kmKgqwMufsq780r6Ww-6" target="M6kmKgqwMufsq780r6Ww-26">
          <mxGeometry relative="1" as="geometry" />
        </mxCell>
        <mxCell id="M6kmKgqwMufsq780r6Ww-6" value="Mission" style="rounded=0;whiteSpace=wrap;html=1;" vertex="1" parent="1">
          <mxGeometry x="440" y="-180" width="120" height="60" as="geometry" />
        </mxCell>
        <mxCell id="M6kmKgqwMufsq780r6Ww-68" value="" style="edgeStyle=none;rounded=0;orthogonalLoop=1;jettySize=auto;html=1;" edge="1" parent="1" source="M6kmKgqwMufsq780r6Ww-7" target="M6kmKgqwMufsq780r6Ww-67">
          <mxGeometry relative="1" as="geometry" />
        </mxCell>
        <mxCell id="M6kmKgqwMufsq780r6Ww-70" value="" style="edgeStyle=none;rounded=0;orthogonalLoop=1;jettySize=auto;html=1;" edge="1" parent="1" source="M6kmKgqwMufsq780r6Ww-7" target="M6kmKgqwMufsq780r6Ww-69">
          <mxGeometry relative="1" as="geometry" />
        </mxCell>
        <mxCell id="M6kmKgqwMufsq780r6Ww-72" value="" style="edgeStyle=none;rounded=0;orthogonalLoop=1;jettySize=auto;html=1;" edge="1" parent="1" source="M6kmKgqwMufsq780r6Ww-7" target="M6kmKgqwMufsq780r6Ww-71">
          <mxGeometry relative="1" as="geometry" />
        </mxCell>
        <mxCell id="M6kmKgqwMufsq780r6Ww-7" value="Challenge" style="rounded=0;whiteSpace=wrap;html=1;" vertex="1" parent="1">
          <mxGeometry x="-120" y="50" width="120" height="60" as="geometry" />
        </mxCell>
        <mxCell id="M6kmKgqwMufsq780r6Ww-62" value="" style="edgeStyle=none;rounded=0;orthogonalLoop=1;jettySize=auto;html=1;" edge="1" parent="1" source="M6kmKgqwMufsq780r6Ww-8" target="M6kmKgqwMufsq780r6Ww-61">
          <mxGeometry relative="1" as="geometry" />
        </mxCell>
        <mxCell id="M6kmKgqwMufsq780r6Ww-64" value="" style="edgeStyle=none;rounded=0;orthogonalLoop=1;jettySize=auto;html=1;" edge="1" parent="1" source="M6kmKgqwMufsq780r6Ww-8" target="M6kmKgqwMufsq780r6Ww-63">
          <mxGeometry relative="1" as="geometry" />
        </mxCell>
        <mxCell id="M6kmKgqwMufsq780r6Ww-66" value="" style="edgeStyle=none;rounded=0;orthogonalLoop=1;jettySize=auto;html=1;" edge="1" parent="1" source="M6kmKgqwMufsq780r6Ww-8" target="M6kmKgqwMufsq780r6Ww-65">
          <mxGeometry relative="1" as="geometry" />
        </mxCell>
        <mxCell id="M6kmKgqwMufsq780r6Ww-8" value="Attendance" style="rounded=0;whiteSpace=wrap;html=1;" vertex="1" parent="1">
          <mxGeometry x="600" y="330" width="120" height="60" as="geometry" />
        </mxCell>
        <mxCell id="M6kmKgqwMufsq780r6Ww-12" value="Sustainable" style="ellipse;whiteSpace=wrap;html=1;rounded=0;" vertex="1" parent="1">
          <mxGeometry x="-290" y="-160" width="120" height="60" as="geometry" />
        </mxCell>
        <mxCell id="M6kmKgqwMufsq780r6Ww-17" value="Relevant" style="ellipse;whiteSpace=wrap;html=1;rounded=0;" vertex="1" parent="1">
          <mxGeometry x="-130" y="-290" width="120" height="60" as="geometry" />
        </mxCell>
        <mxCell id="M6kmKgqwMufsq780r6Ww-19" value="Type" style="ellipse;whiteSpace=wrap;html=1;rounded=0;" vertex="1" parent="1">
          <mxGeometry x="305" y="-300" width="120" height="60" as="geometry" />
        </mxCell>
        <mxCell id="M6kmKgqwMufsq780r6Ww-23" value="Statement" style="ellipse;whiteSpace=wrap;html=1;rounded=0;" vertex="1" parent="1">
          <mxGeometry x="610" y="-290" width="120" height="60" as="geometry" />
        </mxCell>
        <mxCell id="M6kmKgqwMufsq780r6Ww-26" value="Name" style="ellipse;whiteSpace=wrap;html=1;rounded=0;" vertex="1" parent="1">
          <mxGeometry x="450" y="-330" width="120" height="60" as="geometry" />
        </mxCell>
        <mxCell id="M6kmKgqwMufsq780r6Ww-31" value="Name" style="ellipse;whiteSpace=wrap;html=1;rounded=0;" vertex="1" parent="1">
          <mxGeometry x="-520" y="400" width="120" height="60" as="geometry" />
        </mxCell>
        <mxCell id="M6kmKgqwMufsq780r6Ww-33" value="Sex" style="ellipse;whiteSpace=wrap;html=1;rounded=0;" vertex="1" parent="1">
          <mxGeometry x="-560" y="220" width="120" height="60" as="geometry" />
        </mxCell>
        <mxCell id="M6kmKgqwMufsq780r6Ww-35" value="Curated" style="ellipse;whiteSpace=wrap;html=1;rounded=0;" vertex="1" parent="1">
          <mxGeometry x="-620" y="300" width="120" height="60" as="geometry" />
        </mxCell>
        <mxCell id="M6kmKgqwMufsq780r6Ww-37" value="Local volunteer" style="ellipse;whiteSpace=wrap;html=1;rounded=0;" vertex="1" parent="1">
          <mxGeometry x="-400" y="460" width="120" height="60" as="geometry" />
        </mxCell>
        <mxCell id="M6kmKgqwMufsq780r6Ww-40" value="Age" style="ellipse;whiteSpace=wrap;html=1;rounded=0;" vertex="1" parent="1">
          <mxGeometry x="-470" y="310" width="120" height="60" as="geometry" />
        </mxCell>
        <mxCell id="M6kmKgqwMufsq780r6Ww-42" value="Name" style="ellipse;whiteSpace=wrap;html=1;rounded=0;" vertex="1" parent="1">
          <mxGeometry x="90" y="600" width="120" height="60" as="geometry" />
        </mxCell>
        <mxCell id="M6kmKgqwMufsq780r6Ww-44" value="Values" style="ellipse;whiteSpace=wrap;html=1;rounded=0;" vertex="1" parent="1">
          <mxGeometry x="100" y="710" width="120" height="60" as="geometry" />
        </mxCell>
        <mxCell id="M6kmKgqwMufsq780r6Ww-46" value="Access" style="ellipse;whiteSpace=wrap;html=1;rounded=0;" vertex="1" parent="1">
          <mxGeometry x="290" y="740" width="120" height="60" as="geometry" />
        </mxCell>
        <mxCell id="M6kmKgqwMufsq780r6Ww-48" value="Name" style="ellipse;whiteSpace=wrap;html=1;rounded=0;" vertex="1" parent="1">
          <mxGeometry x="410" y="-10" width="120" height="60" as="geometry" />
        </mxCell>
        <mxCell id="M6kmKgqwMufsq780r6Ww-50" value="Date" style="ellipse;whiteSpace=wrap;html=1;rounded=0;" vertex="1" parent="1">
          <mxGeometry x="580" y="-10" width="120" height="60" as="geometry" />
        </mxCell>
        <mxCell id="M6kmKgqwMufsq780r6Ww-52" value="Status" style="ellipse;whiteSpace=wrap;html=1;rounded=0;" vertex="1" parent="1">
          <mxGeometry x="730" y="-10" width="120" height="60" as="geometry" />
        </mxCell>
        <mxCell id="M6kmKgqwMufsq780r6Ww-55" value="Description" style="ellipse;whiteSpace=wrap;html=1;rounded=0;" vertex="1" parent="1">
          <mxGeometry x="560" y="600" width="120" height="60" as="geometry" />
        </mxCell>
        <mxCell id="M6kmKgqwMufsq780r6Ww-57" value="Status" style="ellipse;whiteSpace=wrap;html=1;rounded=0;" vertex="1" parent="1">
          <mxGeometry x="380" y="540" width="120" height="60" as="geometry" />
        </mxCell>
        <mxCell id="M6kmKgqwMufsq780r6Ww-59" value="Time" style="ellipse;whiteSpace=wrap;html=1;rounded=0;" vertex="1" parent="1">
          <mxGeometry x="400" y="400" width="120" height="60" as="geometry" />
        </mxCell>
        <mxCell id="M6kmKgqwMufsq780r6Ww-61" value="Time accepted" style="ellipse;whiteSpace=wrap;html=1;rounded=0;" vertex="1" parent="1">
          <mxGeometry x="750" y="210" width="120" height="60" as="geometry" />
        </mxCell>
        <mxCell id="M6kmKgqwMufsq780r6Ww-63" value="Time to go" style="ellipse;whiteSpace=wrap;html=1;rounded=0;" vertex="1" parent="1">
          <mxGeometry x="510" y="240" width="120" height="60" as="geometry" />
        </mxCell>
        <mxCell id="M6kmKgqwMufsq780r6Ww-65" value="Place" style="ellipse;whiteSpace=wrap;html=1;rounded=0;" vertex="1" parent="1">
          <mxGeometry x="600" y="190" width="120" height="60" as="geometry" />
        </mxCell>
        <mxCell id="M6kmKgqwMufsq780r6Ww-67" value="Name" style="ellipse;whiteSpace=wrap;html=1;rounded=0;" vertex="1" parent="1">
          <mxGeometry x="-400" y="80" width="120" height="60" as="geometry" />
        </mxCell>
        <mxCell id="M6kmKgqwMufsq780r6Ww-69" value="Level" style="ellipse;whiteSpace=wrap;html=1;rounded=0;" vertex="1" parent="1">
          <mxGeometry x="-380" y="10" width="120" height="60" as="geometry" />
        </mxCell>
        <mxCell id="M6kmKgqwMufsq780r6Ww-71" value="Deadline" style="ellipse;whiteSpace=wrap;html=1;rounded=0;" vertex="1" parent="1">
          <mxGeometry x="-320" y="-50" width="120" height="60" as="geometry" />
        </mxCell>
        <mxCell id="M6kmKgqwMufsq780r6Ww-73" value="Name" style="ellipse;whiteSpace=wrap;html=1;rounded=0;" vertex="1" parent="1">
          <mxGeometry x="-260" y="-250" width="120" height="60" as="geometry" />
        </mxCell>
        <mxCell id="M6kmKgqwMufsq780r6Ww-79" value="" style="edgeStyle=none;rounded=0;orthogonalLoop=1;jettySize=auto;html=1;" edge="1" parent="1" source="M6kmKgqwMufsq780r6Ww-75" target="M6kmKgqwMufsq780r6Ww-7">
          <mxGeometry relative="1" as="geometry">
            <mxPoint x="-80" y="50" as="targetPoint" />
          </mxGeometry>
        </mxCell>
        <mxCell id="M6kmKgqwMufsq780r6Ww-75" value="Face" style="rhombus;whiteSpace=wrap;html=1;rounded=0;" vertex="1" parent="1">
          <mxGeometry x="-100" y="-90" width="80" height="80" as="geometry" />
        </mxCell>
        <mxCell id="M6kmKgqwMufsq780r6Ww-82" value="" style="edgeStyle=none;rounded=0;orthogonalLoop=1;jettySize=auto;html=1;" edge="1" parent="1" source="M6kmKgqwMufsq780r6Ww-80" target="M6kmKgqwMufsq780r6Ww-3">
          <mxGeometry relative="1" as="geometry" />
        </mxCell>
        <mxCell id="M6kmKgqwMufsq780r6Ww-80" value="Enlist" style="rhombus;whiteSpace=wrap;html=1;rounded=0;" vertex="1" parent="1">
          <mxGeometry x="140" y="-190" width="80" height="80" as="geometry" />
        </mxCell>
        <mxCell id="M6kmKgqwMufsq780r6Ww-87" value="" style="edgeStyle=none;rounded=0;orthogonalLoop=1;jettySize=auto;html=1;fontSize=11;" edge="1" parent="1" source="M6kmKgqwMufsq780r6Ww-83" target="M6kmKgqwMufsq780r6Ww-1">
          <mxGeometry relative="1" as="geometry">
            <mxPoint x="-10" y="-100" as="targetPoint" />
          </mxGeometry>
        </mxCell>
        <mxCell id="M6kmKgqwMufsq780r6Ww-83" value="&lt;div&gt;&lt;span&gt;&lt;font style=&quot;font-size: 11px&quot;&gt;Engaged to social impact&lt;/font&gt;&lt;/span&gt;&lt;/div&gt;" style="rhombus;whiteSpace=wrap;html=1;rounded=0;align=center;" vertex="1" parent="1">
          <mxGeometry x="10" y="-130" width="110" height="100" as="geometry" />
        </mxCell>
        <mxCell id="M6kmKgqwMufsq780r6Ww-90" value="" style="edgeStyle=none;rounded=0;orthogonalLoop=1;jettySize=auto;html=1;fontSize=11;" edge="1" parent="1" source="M6kmKgqwMufsq780r6Ww-88" target="M6kmKgqwMufsq780r6Ww-3">
          <mxGeometry relative="1" as="geometry">
            <mxPoint x="180" y="340" as="targetPoint" />
          </mxGeometry>
        </mxCell>
        <mxCell id="M6kmKgqwMufsq780r6Ww-88" value="Share" style="rhombus;whiteSpace=wrap;html=1;rounded=0;" vertex="1" parent="1">
          <mxGeometry x="150" y="180" width="80" height="80" as="geometry" />
        </mxCell>
        <mxCell id="M6kmKgqwMufsq780r6Ww-93" value="" style="edgeStyle=none;rounded=0;orthogonalLoop=1;jettySize=auto;html=1;fontSize=11;exitX=0.5;exitY=0;exitDx=0;exitDy=0;" edge="1" parent="1" source="M6kmKgqwMufsq780r6Ww-91" target="M6kmKgqwMufsq780r6Ww-3">
          <mxGeometry relative="1" as="geometry" />
        </mxCell>
        <mxCell id="M6kmKgqwMufsq780r6Ww-91" value="Spend" style="rhombus;whiteSpace=wrap;html=1;rounded=0;" vertex="1" parent="1">
          <mxGeometry x="50" y="180" width="80" height="80" as="geometry" />
        </mxCell>
        <mxCell id="M6kmKgqwMufsq780r6Ww-96" value="" style="edgeStyle=none;rounded=0;orthogonalLoop=1;jettySize=auto;html=1;fontSize=11;" edge="1" parent="1" source="M6kmKgqwMufsq780r6Ww-94" target="M6kmKgqwMufsq780r6Ww-3">
          <mxGeometry relative="1" as="geometry">
            <mxPoint x="350" y="70" as="targetPoint" />
          </mxGeometry>
        </mxCell>
        <mxCell id="M6kmKgqwMufsq780r6Ww-94" value="Have similar ambitious or interest" style="rhombus;whiteSpace=wrap;html=1;rounded=0;" vertex="1" parent="1">
          <mxGeometry x="290" y="150" width="120" height="80" as="geometry" />
        </mxCell>
      </root>
    </mxGraphModel>
  </diagram>
</mxfile>
